<svg width="40" height="40" viewBox="0 0 40 40" fill="none" xmlns="http://www.w3.org/2000/svg">
<path d="M35.9222 6.66661C35.7707 6.65101 35.6181 6.65101 35.4666 6.66661H4.35549C4.15609 6.66968 3.95802 6.69958 3.7666 6.7555L19.8222 22.7444L35.9222 6.66661Z" fill="black"/>
<path d="M37.5668 8.21106L21.389 24.3222C20.9726 24.7361 20.4094 24.9684 19.8223 24.9684C19.2352 24.9684 18.672 24.7361 18.2556 24.3222L2.22231 8.33328C2.17302 8.51444 2.14689 8.70111 2.14453 8.88884V31.1111C2.14453 31.7004 2.37866 32.2657 2.79541 32.6824C3.21215 33.0992 3.77738 33.3333 4.36675 33.3333H35.4779C36.0672 33.3333 36.6325 33.0992 37.0492 32.6824C37.466 32.2657 37.7001 31.7004 37.7001 31.1111V8.88884C37.6912 8.65734 37.6463 8.42865 37.5668 8.21106ZM5.88898 31.1111H4.34453V29.5222L12.4223 21.5111L13.989 23.0777L5.88898 31.1111ZM35.4556 31.1111H33.9001L25.8001 23.0777L27.3668 21.5111L35.4445 29.5222L35.4556 31.1111Z" fill="black"/>
</svg>
