<svg width="25" height="25" viewBox="0 0 25 25" fill="none" xmlns="http://www.w3.org/2000/svg">
<path d="M0 0V25H25V0H0ZM2.27273 2.27273H22.7273V22.7273H2.27273V2.27273ZM4.54545 7.23864V17.0227H9.29545C11.0682 17.0114 12.7386 16.1591 12.7386 14.1705C12.7386 12.9318 12.1477 11.8864 10.9545 11.5455C11.8295 11.1136 12.2841 10.6364 12.2841 9.65909C12.2841 7.70455 10.8409 7.23864 9.15909 7.23864H4.54545V7.23864ZM14.9318 7.95455V8.92045H18.8864V7.95455H14.9318V7.95455ZM6.70454 8.73864H8.72727C9.48864 8.73864 10.1932 8.95455 10.1932 9.85227C10.1932 10.6818 9.64773 11.0227 8.875 11.0227H6.70454V8.73864ZM17 9.57955C14.8523 9.57955 13.3864 11.1818 13.3864 13.3182C13.3864 15.5227 14.7614 17.0455 17 17.0455C18.6932 17.0455 19.7955 16.2841 20.3182 14.6591H18.6023C18.4091 15.2614 17.6591 15.5795 17.0682 15.5795C15.9205 15.5795 15.3295 14.9091 15.3295 13.7841H20.4318C20.4432 13.6705 20.4545 13.5341 20.4545 13.4091C20.4545 11.3182 19.2159 9.57955 17 9.57955V9.57955ZM16.9318 11.0341C17.9205 11.0341 18.4091 11.6136 18.4886 12.5568H15.3295C15.3864 11.625 16 11.0341 16.9318 11.0341ZM6.69318 12.6477H9.04545C9.98864 12.6477 10.5909 13.0455 10.5909 14.0568C10.5909 15.0341 9.875 15.3409 9 15.3409H6.69318V12.6477V12.6477Z" fill="#B7B7B7"/>
</svg>
