<svg width="50" height="50" viewBox="0 0 50 50" fill="none" xmlns="http://www.w3.org/2000/svg">
<path d="M49.7299 20.9531L44.7229 13.4839L47.2021 4.74539C47.3642 4.15957 47.2264 3.64698 46.7889 3.20762C46.3514 2.76825 45.841 2.62993 45.2576 2.79266L36.6047 5.33121L29.0699 0.302924C28.5838 -0.0550771 28.0652 -0.0957591 27.5143 0.180878C26.9634 0.457516 26.6717 0.905017 26.6393 1.52338L26.3962 10.6036L19.2503 16.2177C19.0559 16.3804 18.9019 16.592 18.7885 16.8523C18.6751 17.1127 18.6508 17.3893 18.7156 17.6823C18.7156 17.7799 18.7399 17.8857 18.7885 17.9996C18.8371 18.1135 18.8857 18.2111 18.9343 18.2925C18.9829 18.3738 19.0477 18.4552 19.1288 18.5366C19.2098 18.6179 19.2989 18.6912 19.3961 18.7563C19.4934 18.8214 19.5906 18.8702 19.6878 18.9027L26.3962 21.2948C26.299 21.3599 26.2504 21.4087 26.2504 21.4413L0.437507 47.315C0.243059 47.5103 0.113428 47.7462 0.0486119 48.0229C-0.016204 48.2995 -0.016204 48.568 0.0486119 48.8284C0.113428 49.0887 0.243059 49.3328 0.437507 49.5606C0.761586 49.8535 1.13428 50 1.55558 50C1.97688 50 2.34957 49.8535 2.67365 49.5606L28.4379 23.6381C28.5352 23.5405 28.6162 23.4265 28.681 23.2964L31.306 30.5215C31.5329 31.0748 31.938 31.4002 32.5213 31.4979C32.6186 31.5304 32.6996 31.5467 32.7644 31.5467C33.2829 31.5467 33.7042 31.3351 34.0283 30.912L39.5214 23.7357L48.466 23.394C48.7577 23.394 49.0251 23.3208 49.2681 23.1743C49.5112 23.0279 49.6975 22.8245 49.8272 22.5641C50.0864 22.0108 50.054 21.4738 49.7299 20.9531ZM38.695 20.6602C38.2089 20.6602 37.82 20.8554 37.5284 21.246L33.2505 26.7625L30.8685 20.2208C30.7065 19.7652 30.3986 19.456 29.9449 19.2933L23.4309 16.9012L28.8754 12.6051C29.0051 12.5075 29.1104 12.4017 29.1914 12.2878C29.2724 12.1739 29.3373 12.0437 29.3859 11.8973C29.4345 11.7508 29.4588 11.5962 29.4588 11.4335L29.7018 4.45248L35.438 8.35795C35.8593 8.61832 36.2969 8.68341 36.7506 8.55322L43.4104 6.60049L41.5145 13.2886C41.4821 13.3862 41.4659 13.4839 41.4659 13.5815V13.85L41.4902 14.1185L41.5874 14.387L41.709 14.6067L45.6465 20.3673L38.695 20.6602Z" fill="black"/>
</svg>
